<svg width="165" height="44" viewBox="0 0 165 44" fill="none" xmlns="http://www.w3.org/2000/svg">
<path d="M24.7306 29.6957C22.35 28.8115 19.9015 28.6755 17.6569 29.2876C16.0926 29.6957 14.5962 30.5119 13.2359 31.5321L12.2837 32.3483L12.0116 32.6204L12.6237 33.1645C12.6918 33.1645 12.6918 33.2325 12.7598 33.3005C12.8958 33.4366 13.0318 33.5046 13.2359 33.6406L13.644 33.9127L14.0521 33.5726C14.1201 33.5046 14.2561 33.3686 14.3922 33.3005C15.6164 32.2803 16.9768 31.6001 18.4051 31.2601C20.2415 30.784 22.214 30.852 24.1864 31.6001C25.8188 32.2123 29.1516 32.9605 33.1646 31.2601L33.3006 31.192L33.5046 30.988C33.5046 30.92 33.5727 30.92 33.6407 30.852C33.9808 30.4439 34.3208 30.0358 34.5929 29.5597L35.9532 27.4512L33.7767 28.6755C30.5799 30.4439 27.6553 30.7839 24.7306 29.6957Z" fill="white"/>
<path d="M15.4124 22.3502C17.2488 21.8741 19.2213 21.9421 21.1938 22.6903C23.3703 23.5065 28.9476 24.6628 35.205 19.0175L36.2253 17.9972L36.2933 17.9292L36.5654 17.6571L36.4293 17.3171C36.3613 17.045 36.2253 16.7049 36.0892 16.3648L35.7492 15.4126L35.069 16.0928C35.001 16.2288 34.865 16.2968 34.7289 16.4328C31.7362 19.4936 27.1111 22.6223 21.8059 20.7179C19.4253 19.8336 16.9768 19.6976 14.7323 20.3098C12.5557 20.9219 10.6513 22.0782 8.88288 23.7105V23.6425L7.86264 24.7308C7.86264 24.7988 7.79464 24.7988 7.72662 24.8668L7.52256 25.0709L7.59058 25.3429C7.6586 25.683 7.79462 26.0231 7.86264 26.3632L8.27074 27.4514L8.9509 26.5672C9.01891 26.4312 9.15494 26.3632 9.22296 26.2271C10.6513 24.9348 12.6238 23.0984 15.4124 22.3502Z" fill="white"/>
<path d="M8.81488 21.1259C10.3792 19.4935 12.1476 18.4732 14.0521 17.9291C15.8885 17.453 17.861 17.521 19.8334 18.2692C25.9549 20.5137 31.2601 16.8409 33.5727 14.8684L34.4569 13.9842L34.797 13.7121L34.5249 13.304C34.3208 13.1 34.1848 12.8279 33.9808 12.5559L33.5727 12.0117L33.0966 12.4878C33.0285 12.5559 32.8925 12.6919 32.8245 12.7599C29.9678 15.4805 25.5468 18.2692 20.5136 16.3648C18.133 15.4805 15.6845 15.3445 13.44 15.9567C12.0116 16.3648 10.6513 17.0449 9.29098 17.9291L7.86264 19.0854C7.72661 19.2214 7.65859 19.2894 7.52256 19.4255L7.38654 19.5615V19.7656C7.31852 20.2417 7.31852 20.7178 7.2505 21.1259L7.18248 22.8263L8.33876 21.602C8.47479 21.4659 8.61083 21.2619 8.81488 21.1259Z" fill="white"/>
<path d="M26.7031 34.3208L26.567 34.7289L26.7031 34.3208C26.499 34.2528 26.363 34.1847 26.1589 34.1167C23.7784 33.2325 21.3298 33.0965 19.0853 33.7086C18.6092 33.8447 18.1331 33.9807 17.6569 34.1847L16.0245 34.9329L15.6165 35.137L16.9768 35.6131C17.3849 35.7491 17.793 35.8852 18.2011 36.0212L18.4051 36.0892L18.6092 36.0212C18.8132 35.9532 19.0173 35.8171 19.2213 35.8171C19.3573 35.8171 19.4934 35.7491 19.6294 35.6811C21.2618 35.273 23.0302 35.273 24.9346 35.8851C25.1387 35.9532 25.2747 36.0212 25.4788 36.0892L25.8189 36.2252L26.0229 36.1572C26.499 36.0212 27.0431 35.8852 27.4512 35.6811L29.3557 35.0009L27.3832 34.5248C27.1792 34.4568 26.9071 34.3888 26.7031 34.3208Z" fill="white"/>
<path d="M37.1095 20.2417L36.0893 21.2619C35.9532 21.398 35.8172 21.534 35.6812 21.67C32.8925 24.3227 28.4035 27.1793 23.3703 25.2749C20.9897 24.3907 18.5412 24.2547 16.2967 24.8668C14.1882 25.4789 12.2837 26.5672 10.5833 28.1996L9.6991 29.1518L9.42704 29.4919L9.6991 29.9C9.90315 30.172 10.0392 30.3761 10.1752 30.6481L10.5833 31.2603L11.0594 30.6481C11.1274 30.5801 11.2635 30.4441 11.3315 30.3761C12.9639 28.6077 14.7323 27.5194 16.7728 26.9753C18.6092 26.4992 20.5816 26.5672 22.5541 27.3154C24.2545 27.9275 26.0229 28.1316 27.7913 27.9275C30.9201 27.5874 34.0488 25.819 36.3614 23.8466C36.4974 23.7105 36.6334 23.6425 36.7694 23.5065L36.9735 23.3024V23.0984C36.9735 22.6903 37.0415 22.2142 37.0415 21.8061L37.1095 20.2417Z" fill="white"/>
<path d="M11.2634 13.9839L11.0594 13.5758L11.2634 13.9839C11.6715 13.7799 12.1476 13.6438 12.5557 13.5078C14.3921 13.0317 16.3646 13.0997 18.3371 13.8479C19.6294 14.324 20.9217 14.528 22.35 14.528C25.2067 14.528 28.0633 13.5078 30.716 11.5353L31.7362 10.7191L32.0763 10.4471L31.4641 9.97096C31.2601 9.76692 30.988 9.56288 30.716 9.42684L30.3078 9.15479L29.9678 9.42684C29.8317 9.49486 29.7637 9.63089 29.6277 9.6989C26.0228 12.4195 22.418 13.1677 19.0172 11.8754C16.5687 10.9912 14.1201 10.7872 11.6715 11.5353C11.4674 11.6034 11.2634 11.6714 10.9913 11.7394L10.8553 11.8074L10.6513 12.0114C10.6513 12.0795 10.5832 12.0795 10.5152 12.1475C10.2432 12.5556 9.90308 12.8957 9.63101 13.3038L8.33871 15.2762L10.4472 14.188C10.7873 14.188 11.0593 14.0519 11.2634 13.9839Z" fill="white"/>
<path d="M16.8407 9.35911L17.0448 9.42713C17.929 9.76721 19.2893 10.1073 20.9897 10.1073C22.7581 10.1073 24.4585 9.69919 26.1589 9.01903L28.2674 7.9988L26.8391 7.5227C26.431 7.38666 26.0229 7.25063 25.5468 7.18262H25.3427L25.1387 7.25062C24.9347 7.31863 24.7306 7.45468 24.5265 7.5227C22.4861 8.27087 20.4456 8.4069 18.4731 7.86278C18.2691 7.79476 18.065 7.72673 17.861 7.65872L17.6569 7.5907L17.4529 7.65872C17.0448 7.79475 16.6367 7.93079 16.2286 8.13484L14.6642 8.815L16.2966 9.29109C16.4327 9.22308 16.6367 9.2911 16.8407 9.35911Z" fill="white"/>
<path d="M45.5824 27.7041L42.1133 18.0508H46.4443L47.7372 22.8775L48.0819 24.5797H48.2974L48.6206 23.0929L49.8919 18.0508H54.2014L55.5589 23.0929L55.8606 24.5797H56.076L56.4423 22.8344L57.649 18.0508H62.0016L61.6568 19.3652L58.5109 27.7041H53.7705L52.413 22.2095L52.1975 21.1968H51.982L51.7019 22.3172L50.3229 27.7041H45.5824ZM66.5989 27.7041C65.6508 27.7041 64.9398 27.5676 64.4657 27.2947C63.9917 27.0218 63.6757 26.6483 63.5176 26.1742C63.374 25.6858 63.3022 25.1256 63.3022 24.4935V21.2399C63.3022 20.6365 63.3812 20.0979 63.5392 19.6238C63.6972 19.1354 64.0061 18.7547 64.4657 18.4818C64.9398 18.1945 65.6508 18.0508 66.5989 18.0508H72.5891C73.5372 18.0508 74.2411 18.1945 74.7008 18.4818C75.1748 18.7547 75.4837 19.1354 75.6273 19.6238C75.7853 20.0979 75.8643 20.6365 75.8643 21.2399V24.4935C75.8643 25.1256 75.7853 25.6858 75.6273 26.1742C75.4837 26.6483 75.1748 27.0218 74.7008 27.2947C74.2411 27.5676 73.5372 27.7041 72.5891 27.7041H66.5989ZM68.3227 24.9891H70.8869C71.5764 24.9891 71.914 24.7018 71.8996 24.1272V21.6277C71.8996 21.3404 71.8206 21.1249 71.6626 20.9813C71.5189 20.8376 71.2604 20.7658 70.8869 20.7658H68.3443C67.9708 20.7658 67.705 20.8376 67.547 20.9813C67.389 21.1249 67.31 21.3404 67.31 21.6277V24.1272C67.2956 24.7018 67.6332 24.9891 68.3227 24.9891ZM78.2263 27.7041V18.0508H81.286L82.1048 18.4818C82.7656 18.0508 83.6419 17.8354 84.7336 17.8354C85.4519 17.8354 86.0839 17.9144 86.6298 18.0724C87.1757 18.216 87.6138 18.3741 87.9442 18.5464C88.289 18.7188 88.5044 18.8409 88.5906 18.9127L87.5133 21.7139C87.3696 21.6134 87.0967 21.4769 86.6945 21.3045C86.3066 21.1321 85.8469 20.9741 85.3154 20.8305C84.7839 20.6725 84.2237 20.5934 83.6347 20.5934H83.3977C82.9955 20.5934 82.6866 20.6653 82.4712 20.8089C82.2557 20.9382 82.1479 21.2327 82.1479 21.6924V27.7041H78.2263ZM101.277 27.9196C100.573 27.9196 99.9558 27.8478 99.4243 27.7041C98.9071 27.5605 98.4115 27.2516 97.9375 26.7776C97.6502 26.4903 97.3629 26.203 97.0756 25.9157C96.7883 25.6284 96.501 25.3411 96.2137 25.0538C95.9839 24.8096 95.7971 24.6228 95.6535 24.4935C95.5098 24.3499 95.3662 24.2565 95.2225 24.2134C95.0932 24.156 94.9065 24.1272 94.6623 24.1272C94.3463 24.1272 94.1595 24.156 94.1021 24.2134C94.0446 24.2709 94.0159 24.4648 94.0159 24.7952V27.7041H90.0942V14.0646H94.0159V21.3692H94.7054C94.9496 21.3692 95.1794 21.2686 95.3949 21.0675C95.5242 20.9382 95.7181 20.7012 95.9767 20.3564C96.2496 20.0117 96.5441 19.631 96.8601 19.2144C97.1762 18.7978 97.4635 18.4172 97.722 18.0724H102.247L101.902 18.7404C101.557 19.1713 101.155 19.6454 100.696 20.1625C100.25 20.6796 99.8121 21.1537 99.3812 21.5846C98.9646 22.0156 98.627 22.3172 98.3685 22.4896C98.9287 22.8631 99.453 23.2653 99.9414 23.6963C100.43 24.1129 101.055 24.4863 101.816 24.8167C102.319 25.0322 102.743 25.1759 103.087 25.2477C103.446 25.3052 103.698 25.3339 103.842 25.3339L103.238 27.7041C103.095 27.7472 102.85 27.7903 102.506 27.8334C102.175 27.8908 101.766 27.9196 101.277 27.9196ZM106.045 27.7041V20.7658H104.278V18.0724H106.045V16.5856C106.045 14.4596 107.208 13.3966 109.535 13.3966H111.022C112.746 13.3966 113.981 13.4756 114.728 13.6336C115.49 13.7916 115.87 13.9281 115.87 14.043L115.224 16.5425C114.98 16.442 114.541 16.3486 113.909 16.2624C113.277 16.1619 112.516 16.1116 111.625 16.1116H111C110.641 16.1116 110.376 16.1762 110.203 16.3055C110.045 16.4348 109.966 16.6574 109.966 16.9735V18.0724H114.017V20.7658H109.966V27.7041H106.045ZM116.529 27.7041V15.7668L116.313 14.043H120.45V27.7041H116.529ZM126.107 27.7041C125.159 27.7041 124.448 27.5676 123.974 27.2947C123.5 27.0218 123.184 26.6483 123.026 26.1742C122.882 25.6858 122.81 25.1256 122.81 24.4935V21.2399C122.81 20.6365 122.889 20.0979 123.047 19.6238C123.205 19.1354 123.514 18.7547 123.974 18.4818C124.448 18.1945 125.159 18.0508 126.107 18.0508H132.097C133.045 18.0508 133.749 18.1945 134.209 18.4818C134.683 18.7547 134.992 19.1354 135.135 19.6238C135.293 20.0979 135.372 20.6365 135.372 21.2399V24.4935C135.372 25.1256 135.293 25.6858 135.135 26.1742C134.992 26.6483 134.683 27.0218 134.209 27.2947C133.749 27.5676 133.045 27.7041 132.097 27.7041H126.107ZM127.831 24.9891H130.395C131.084 24.9891 131.422 24.7018 131.408 24.1272V21.6277C131.408 21.3404 131.329 21.1249 131.171 20.9813C131.027 20.8376 130.768 20.7658 130.395 20.7658H127.852C127.479 20.7658 127.213 20.8376 127.055 20.9813C126.897 21.1249 126.818 21.3404 126.818 21.6277V24.1272C126.804 24.7018 127.141 24.9891 127.831 24.9891ZM140.126 27.7041L136.657 18.0508H140.988L142.281 22.8775L142.626 24.5797H142.841L143.164 23.0929L144.436 18.0508H148.745L150.103 23.0929L150.404 24.5797H150.62L150.986 22.8344L152.193 18.0508H156.545L156.2 19.3652L153.055 27.7041H148.314L146.957 22.2095L146.741 21.1968H146.526L146.246 22.3172L144.866 27.7041H140.126Z" fill="white"/>
</svg>
