<svg width="183" height="491" viewBox="0 0 183 491" fill="none" xmlns="http://www.w3.org/2000/svg">
<path d="M171.341 112.927L171.586 114.568L171.802 116.118C171.94 117.146 172.064 118.17 172.176 119.2C172.397 121.262 172.572 123.334 172.688 125.442C172.803 127.546 172.862 129.69 172.82 131.895C172.782 134.105 172.652 136.376 172.331 138.787C171.995 141.21 171.518 143.761 170.414 146.71C169.848 148.183 169.117 149.772 167.971 151.493C167.396 152.351 166.705 153.24 165.862 154.128C165.025 155.018 164.005 155.909 162.82 156.71C161.636 157.519 160.256 158.225 158.801 158.745C157.346 159.265 155.818 159.588 154.358 159.725C151.42 159.996 148.871 159.569 146.802 159.001C145.764 158.714 144.807 158.381 143.959 158.032L142.865 157.499L141.83 156.94C140.479 156.18 139.256 155.376 138.123 154.551C136.98 153.728 135.956 152.885 134.975 152.032C133.999 151.182 133.091 150.321 132.228 149.452C130.497 147.721 128.965 145.968 127.53 144.205C124.669 140.686 122.228 137.127 119.973 133.545C117.723 129.961 115.678 126.351 113.766 122.699C112.812 120.873 111.886 119.037 110.993 117.179C110.546 116.25 110.107 115.314 109.67 114.371L109.021 112.933L108.336 111.366C105.458 104.778 108.463 97.1091 115.046 94.2326C121.634 91.3561 129.303 94.3603 132.181 100.948L132.321 101.261L132.786 102.324L133.319 103.505C133.686 104.297 134.061 105.092 134.442 105.89C135.21 107.479 136.007 109.063 136.826 110.627C138.462 113.752 140.196 116.807 142.016 119.708C143.834 122.605 145.749 125.362 147.72 127.777C148.699 128.985 149.697 130.109 150.673 131.085C150.951 131.368 151.233 131.641 151.509 131.895C151.729 131.156 151.933 130.387 152.122 129.6C152.504 128.002 152.828 126.324 153.104 124.609C153.379 122.892 153.611 121.135 153.798 119.369C153.894 118.483 153.975 117.596 154.048 116.712L154.234 114.168L154.274 113.58C154.619 108.846 158.735 105.286 163.469 105.63C167.547 105.932 170.758 109.04 171.341 112.927Z" fill="#E9A48E"/>
<path d="M124.219 91.7819L126.204 143.111C126.204 143.111 129.952 150.09 136.121 155.728C136.361 155.949 136.605 156.169 136.855 156.384C138.464 157.782 140.226 159.077 142.119 160.126C144.987 161.716 148.239 162.7 151.843 162.575C155.158 162.46 157.949 161.707 160.293 160.584C162.887 159.343 164.931 157.657 166.525 155.893C166.749 155.643 166.966 155.39 167.174 155.14C170.466 151.149 171.553 147.048 171.553 147.048C171.553 147.048 173.172 146.775 174.792 143.332C176.411 139.892 172.415 138.104 172.415 138.104L171.882 141.507C168.324 141.424 153.099 124.611 153.099 124.611C153.099 124.611 152.502 123.942 152.101 124.532C151.702 125.128 152.101 126.909 152.101 126.909L151.71 128.055L150.666 131.09C150.666 131.09 148.904 128.384 146.558 124.563C146.354 124.227 146.144 123.885 145.93 123.533C143.175 119.007 139.8 113.23 137.513 108.503C137.312 108.091 137.121 107.686 136.94 107.295C136.022 105.304 135.338 103.552 135.038 102.235C133.334 94.7784 128.139 79.7223 128.139 79.7223L124.219 91.7819Z" fill="#467B6C"/>
<path d="M136.122 155.728C136.362 155.949 136.606 156.169 136.857 156.384C141.248 152.875 147.173 151.281 152.891 151.686C157.775 152.032 162.319 153.609 166.525 155.893C166.749 155.643 166.966 155.39 167.174 155.14C162.44 152.539 157.295 150.811 151.749 150.644C146.089 150.471 140.398 152.235 136.122 155.728Z" fill="#5FA68D"/>
<path d="M131.536 136.039C132.994 139.614 136.787 139.992 139.298 137.296C140.845 135.634 141.968 133.497 143.077 131.533C144.321 129.323 145.456 127.056 146.477 124.738C146.504 124.679 146.53 124.62 146.556 124.56C146.352 124.225 146.142 123.883 145.927 123.53C145.562 124.392 145.176 125.252 144.775 126.101C143.61 128.57 142.313 130.973 140.891 133.303C139.611 135.403 137.346 139.463 134.294 137.852C131.443 136.347 131.795 132.187 131.957 129.478C132.135 126.509 132.657 123.569 133.389 120.686C134.446 116.522 135.927 112.489 137.511 108.5C137.31 108.088 137.119 107.683 136.938 107.292C135.062 111.964 133.291 116.691 132.152 121.601C131.576 124.093 131.164 126.625 130.989 129.179C130.839 131.414 130.67 133.92 131.536 136.039Z" fill="#5FA68D"/>
<path d="M142.118 160.125C144.988 161.716 148.237 162.701 151.843 162.574C155.157 162.459 157.948 161.704 160.292 160.583C157.5 158.805 153.269 157.017 147.681 157.199C144.566 157.3 142.904 158.486 142.118 160.125Z" fill="#253F3D"/>
<path d="M151.709 128.054C155.582 135.411 171.554 147.047 171.554 147.047C171.554 147.047 173.173 146.772 174.793 143.333C176.413 139.894 172.416 138.106 172.416 138.106L171.882 141.507C168.323 141.426 153.099 124.612 153.099 124.612C153.099 124.612 152.503 123.942 152.101 124.534C151.7 125.131 152.101 126.911 152.101 126.911L151.709 128.054Z" fill="#253F3D"/>
<path d="M148.413 142.681C148.366 142.692 148.319 142.698 148.27 142.698C147.939 142.697 147.673 142.427 147.676 142.097C147.716 135.462 149.407 131.427 149.479 131.259C149.609 130.956 149.96 130.815 150.262 130.944C150.565 131.073 150.706 131.424 150.578 131.728C150.562 131.766 148.91 135.731 148.871 142.104C148.87 142.384 148.674 142.618 148.413 142.681Z" fill="#253F3D"/>
<path d="M145.761 134.763C145.593 134.803 145.409 134.771 145.26 134.657C144.997 134.458 144.947 134.083 145.147 133.821C146.352 132.235 147.826 131.306 149.635 130.974C149.96 130.916 150.271 131.13 150.329 131.455C150.389 131.781 150.169 132.079 149.848 132.15C148.337 132.421 147.113 133.206 146.097 134.543C146.011 134.657 145.89 134.732 145.761 134.763Z" fill="#253F3D"/>
<path d="M158.249 95.0287C158.249 95.0287 158.547 94.9861 157.575 93.3614C155.983 90.6991 157.44 85.5824 155.659 84.2209C153.273 82.3962 152.34 87.0135 151.206 96.1011C150.907 98.4911 152.535 106.699 153.589 109.181C154.389 111.064 154.495 113.752 155.736 114.682C159.666 117.621 169.108 117.501 170.512 115.342C172.579 112.164 173.164 104.849 174.313 102.187C175.461 99.5235 180.767 81.5651 178.697 81.9406C176.627 82.3175 173.46 90.6269 173.46 90.6269C173.46 90.6269 176.64 76.5232 174.362 75.9463C172.211 75.4017 169.276 88.5763 169.276 88.5763C169.276 88.5763 171.749 70.9496 168.661 71.7871C167.121 72.2052 164.438 88.0033 164.438 88.0033C164.438 88.0033 165.523 77.6356 161.194 77.8666C156.633 78.1092 155.014 83.164 155.014 83.164C155.014 83.164 155.499 86.2857 158.981 83.164C162.051 80.4075 158.249 95.0287 158.249 95.0287Z" fill="#E9A48E"/>
<path d="M164.592 117.938C166.924 117.938 169.534 117.556 172.359 116.54C173.216 116.231 173.661 115.287 173.354 114.43C173.046 113.573 172.101 113.128 171.244 113.436C161.75 116.85 155.087 111.848 155.022 111.797C154.3 111.242 153.265 111.377 152.709 112.099C152.154 112.822 152.29 113.857 153.011 114.412C153.256 114.6 157.701 117.938 164.592 117.938Z" fill="#2B2B39"/>
<path d="M173.541 95.0159C173.694 94.7616 173.637 94.4287 173.398 94.2416C167.813 89.85 160.901 91.1483 160.609 91.2063C160.287 91.2696 160.076 91.5832 160.141 91.9058C160.204 92.2284 160.518 92.4375 160.839 92.3742C160.905 92.3613 167.515 91.1315 172.661 95.1784C172.919 95.3811 173.293 95.3359 173.497 95.0778C173.514 95.0571 173.528 95.0365 173.541 95.0159Z" fill="#B6665E"/>
<path d="M166.064 107.867C166.185 107.664 166.179 107.401 166.029 107.202C161.749 101.525 164.46 96.6535 164.487 96.6045C164.651 96.3193 164.553 95.9554 164.268 95.7915C163.986 95.6289 163.628 95.7244 163.461 96.0005C163.459 96.0044 163.457 96.007 163.455 96.0109C163.324 96.2367 160.329 101.619 165.078 107.918C165.276 108.18 165.65 108.233 165.912 108.036C165.975 107.988 166.025 107.93 166.064 107.867Z" fill="#B6665E"/>
<path d="M82.6873 458.229L84.2578 470.706H100.171L101.096 457.574L82.6873 458.229Z" fill="#E9A48E"/>
<path d="M125.231 456.206L127.164 470.704H143.075L142.463 455.774L125.231 456.206Z" fill="#E9A48E"/>
<path d="M182.345 495.838H122.159C121.711 495.025 121.468 493.871 121.367 492.496C120.99 487.405 122.614 479.28 123.408 474.157C123.505 473.558 123.588 472.999 123.652 472.494C123.763 471.638 123.832 470.925 123.832 470.403C123.832 466.221 127.533 466.938 127.533 466.938C133.623 472.91 140.519 463.954 144.547 466.891C144.547 466.891 146.281 468.134 151.06 472.434C155.836 476.732 163.965 479.57 170.882 482.465C179.813 486.198 182.346 489.928 182.84 492.496C183.23 494.531 182.345 495.838 182.345 495.838Z" fill="#2B2B39"/>
<path d="M128.299 495.838H126.512C128.297 493.799 129.965 490.672 129.747 486.201C129.457 480.254 125.889 476.244 123.41 474.156C123.507 473.558 123.589 472.999 123.654 472.494C126.326 474.536 130.83 479.007 131.181 486.129C131.388 490.4 129.986 493.585 128.299 495.838Z" fill="#5F5F75"/>
<path d="M150.039 475.984C149.594 475.984 149.188 475.682 149.077 475.23C148.946 474.699 149.27 474.16 149.801 474.029L153.562 473.096C154.092 472.963 154.632 473.288 154.763 473.82C154.895 474.351 154.571 474.89 154.039 475.021L150.279 475.954C150.198 475.975 150.118 475.984 150.039 475.984Z" fill="white"/>
<path d="M146.303 472.855C145.858 472.855 145.452 472.553 145.342 472.101C145.21 471.569 145.534 471.031 146.066 470.899L149.826 469.966C150.356 469.833 150.896 470.159 151.027 470.689C151.159 471.221 150.835 471.759 150.303 471.891L146.544 472.824C146.462 472.844 146.382 472.855 146.303 472.855Z" fill="white"/>
<path d="M153.798 478.17C153.353 478.17 152.949 477.868 152.837 477.416C152.705 476.885 153.029 476.347 153.561 476.215L157.32 475.282C157.852 475.149 158.39 475.473 158.521 476.005C158.653 476.536 158.329 477.074 157.797 477.206L154.038 478.139C153.957 478.16 153.877 478.17 153.798 478.17Z" fill="white"/>
<path d="M157.557 480.271C157.112 480.271 156.707 479.969 156.596 479.517C156.464 478.986 156.788 478.447 157.32 478.316L161.079 477.383C161.611 477.25 162.149 477.575 162.28 478.107C162.412 478.638 162.088 479.177 161.556 479.308L157.797 480.241C157.717 480.261 157.637 480.271 157.557 480.271Z" fill="white"/>
<path d="M161.657 482.213C161.212 482.213 160.807 481.911 160.696 481.461C160.564 480.929 160.888 480.391 161.42 480.259L165.18 479.326C165.712 479.195 166.25 479.517 166.382 480.05C166.513 480.582 166.189 481.12 165.658 481.252L161.898 482.185C161.817 482.204 161.736 482.213 161.657 482.213Z" fill="white"/>
<path d="M166.103 483.87C165.658 483.87 165.252 483.568 165.141 483.116C165.01 482.585 165.334 482.047 165.865 481.915L169.625 480.982C170.156 480.849 170.694 481.173 170.826 481.706C170.958 482.238 170.634 482.776 170.102 482.907L166.343 483.84C166.263 483.861 166.182 483.87 166.103 483.87Z" fill="white"/>
<path d="M58.1628 242.308C58.2893 242.942 58.2855 245.012 58.47 245.609C58.4765 245.631 58.4829 245.657 58.4893 245.679C58.741 246.491 59.0172 247.27 59.3204 248.015C62.0163 254.615 82.8524 255.582 103.363 253.288C119.272 251.508 134.988 247.763 141.888 243.155C148.368 238.83 134.569 198.918 134.569 198.918L54.0514 210.7C54.0514 210.7 54.0501 221.802 58.1628 242.308Z" fill="#6059C9"/>
<path d="M151.834 341.559L145.469 456.805L122.557 457.498C122.557 457.498 114.167 372.415 117.101 353.901L104.841 253.115L104.54 250.53L133.962 236.978L135.797 236.131L143.291 232.681C143.354 233.286 143.417 233.886 143.481 234.492C143.722 236.749 143.958 238.995 144.187 241.233C144.259 241.911 144.326 242.582 144.398 243.251C148.092 279.149 150.813 312.597 151.763 339.5C151.789 340.191 151.811 340.879 151.834 341.559Z" fill="#6059C9"/>
<path d="M151.834 341.559C150.261 341.711 148.663 341.771 147.119 341.771C141.438 341.771 136.469 340.96 136.124 340.907C135.566 340.812 135.187 340.284 135.282 339.724C135.371 339.164 135.899 338.781 136.463 338.879C136.567 338.894 144.6 340.201 151.764 339.499C151.789 340.191 151.811 340.879 151.834 341.559Z" fill="#2B2B39"/>
<path d="M108.712 254.536L122.444 359.334C122.024 361.642 117.637 388.098 124.656 448.464C124.729 449.07 124.798 449.68 124.872 450.294L126.793 450.279C126.721 449.665 126.651 449.058 126.578 448.45C119.261 385.716 124.292 359.813 124.347 359.554C124.366 359.449 124.372 359.342 124.356 359.238L110.608 254.286C110.538 253.764 110.057 253.393 109.536 253.463C109.013 253.533 108.645 254.014 108.712 254.536Z" fill="#2B2B39"/>
<path d="M121.789 449.405C121.798 449.911 122.19 450.32 122.669 450.314L124.872 450.294L126.793 450.279L145.098 450.13C145.124 450.13 145.148 450.128 145.17 450.124C145.613 450.083 145.955 449.684 145.946 449.206C145.937 448.697 145.54 448.291 145.065 448.295L126.577 448.45L124.655 448.466L122.636 448.481C122.166 448.487 121.779 448.897 121.789 449.405Z" fill="#2B2B39"/>
<path d="M125.691 219.821C125.784 220.314 127.665 230.069 133.962 236.978C135.236 238.376 136.686 239.655 138.341 240.718C139.632 241.548 140.985 242.207 142.402 242.687C143.054 242.916 143.719 243.104 144.397 243.25C144.327 242.579 144.26 241.907 144.187 241.232C143.865 241.149 143.547 241.056 143.232 240.952C141.882 240.509 140.594 239.899 139.371 239.112C138.047 238.259 136.857 237.243 135.797 236.129C129.512 229.561 127.59 219.587 127.568 219.469C127.472 218.954 126.975 218.61 126.454 218.705C125.937 218.806 125.596 219.303 125.691 219.821Z" fill="#2B2B39"/>
<path d="M109.96 249.149C109.981 249.57 109.644 249.93 109.208 249.954C109.205 249.954 109.205 249.954 109.201 249.954C108.763 249.976 108.39 249.65 108.37 249.225C108.23 246.347 108.061 243.401 107.875 240.458C107.843 239.94 107.81 239.421 107.774 238.904C107.148 229.286 106.355 219.843 105.755 213.177C105.706 212.639 105.659 212.115 105.613 211.613C105.48 210.151 105.358 208.852 105.254 207.753C105.782 207.671 106.31 207.586 106.83 207.497C106.933 208.597 107.055 209.905 107.19 211.384C107.237 211.886 107.283 212.41 107.332 212.948C107.925 219.557 108.714 228.917 109.34 238.477C109.376 239.003 109.409 239.534 109.445 240.061C109.639 243.113 109.814 246.17 109.96 249.149Z" fill="#2B2B39"/>
<path d="M112.228 238.999C111.979 239.118 110.864 239.637 109.448 240.064C108.952 240.215 108.422 240.353 107.876 240.46C107.378 240.556 106.872 240.628 106.37 240.656C105.407 240.71 104.477 240.61 103.701 240.238C102.735 239.776 102.108 238.935 101.891 237.808C101.313 234.841 100.098 222.589 99.2802 213.924C99.2286 213.391 99.1795 212.871 99.1318 212.366C99.0028 210.98 98.8866 209.719 98.7885 208.648C99.3138 208.585 99.8429 208.521 100.371 208.451C100.47 209.528 100.586 210.805 100.72 212.209C100.768 212.711 100.816 213.231 100.866 213.766C101.686 222.411 102.896 234.645 103.457 237.52C103.584 238.184 103.889 238.609 104.416 238.862C105.258 239.264 106.522 239.18 107.778 238.906C108.314 238.79 108.847 238.64 109.345 238.479C110.256 238.185 111.049 237.851 111.528 237.624C111.922 237.435 112.399 237.59 112.593 237.969C112.784 238.349 112.621 238.811 112.228 238.999Z" fill="#2B2B39"/>
<path d="M103.363 240.646V454.798L103.132 458.191H79.5114C78.2583 450.555 69.3746 419.655 68.1435 393.9C66.8143 366.177 67.1847 330.258 67.1847 330.258C64.6837 311.169 60.8742 271.473 58.6533 247.571C58.5965 246.932 58.5358 246.299 58.479 245.682C58.4726 245.656 58.4701 245.631 58.4701 245.61C58.4701 245.606 58.47 245.597 58.4661 245.59C58.4119 244.967 58.3552 244.363 58.2984 243.771C57.4222 234.283 56.8685 228.092 56.8685 228.092C60.5296 226.57 67.0556 227.526 74.081 229.45C74.7018 229.62 75.3251 229.799 75.9484 229.979C77.1227 230.324 78.3035 230.694 79.4804 231.075C80.1038 231.28 80.7206 231.486 81.3387 231.696C92.7428 235.577 103.363 240.646 103.363 240.646Z" fill="#6059C9"/>
<path d="M103.363 336.423V338.493C101.851 338.633 100.315 338.69 98.8287 338.69C93.1518 338.69 88.1822 337.879 87.835 337.822C87.2776 337.727 86.8981 337.199 86.9936 336.639C87.0852 336.079 87.613 335.699 88.1731 335.794C88.2763 335.812 96.227 337.104 103.363 336.423Z" fill="#2B2B39"/>
<path d="M70.3903 330.518C70.3335 332.73 69.0455 384.694 71.811 403.468C73.8397 417.229 77.786 438.586 79.843 449.483C79.963 450.132 80.0805 450.742 80.185 451.313L81.0548 451.306L82.1246 451.297C82.0175 450.731 81.9027 450.12 81.7801 449.471C79.7488 438.698 75.7458 417.065 73.7003 403.191C70.9129 384.268 72.2859 331.036 72.3014 330.5C72.3014 330.453 72.2975 330.409 72.2949 330.365C70.2005 312.557 65.9149 251.086 65.8736 250.466C65.8361 249.941 65.3793 249.544 64.854 249.579C64.3288 249.617 63.93 250.072 63.9674 250.597C64.0113 251.214 68.2868 312.577 70.3903 330.518Z" fill="#2B2B39"/>
<path d="M77.7925 450.416C77.8054 450.921 78.2196 451.331 78.7255 451.324L80.185 451.311L81.0548 451.305L82.1246 451.296L83.0899 451.289L102.464 451.141C102.492 451.141 102.518 451.137 102.54 451.134C103.011 451.093 103.372 450.694 103.363 450.217C103.354 449.707 102.934 449.302 102.429 449.306L82.8615 449.461L81.7787 449.47L80.8264 449.476L79.8418 449.483L78.6893 449.493C78.1912 449.498 77.7834 449.906 77.7925 450.416Z" fill="#2B2B39"/>
<path d="M106.815 491.978C106.815 492.122 106.812 492.261 106.809 492.398C106.795 493.035 106.768 493.607 106.741 494.097C106.676 495.177 106.597 495.842 106.597 495.842H70.7465C70.7465 495.842 70.5696 494.455 70.7051 492.398C70.94 488.734 72.1569 482.949 77.1072 479.125C83.8849 473.885 81.2678 474.979 82.6576 472.59C82.8151 472.324 84.0346 468.266 84.1636 467.987C85.3289 465.507 86.4026 464.334 92.8253 464.334C101.344 464.334 102.094 468.467 103.003 470.644C103.378 471.546 103.893 473.444 104.42 475.704C104.635 476.61 104.85 477.578 105.06 478.563C105.586 481.032 106.076 483.612 106.409 485.67C106.768 487.876 106.843 490.146 106.815 491.978Z" fill="#2B2B39"/>
<path d="M106.816 491.978C106.816 492.122 106.812 492.261 106.809 492.398C106.795 493.035 106.768 493.607 106.741 494.097C104.993 492.87 103.745 491.252 103.016 489.268C100.798 483.226 104.209 475.976 104.352 475.669L104.423 475.703C104.637 476.609 104.853 477.577 105.063 478.561C104.255 481.029 103.325 485.175 104.617 488.685C105.088 489.965 105.823 491.066 106.816 491.978Z" fill="#5F5F75"/>
<path d="M94.01 475.509C93.9249 475.509 93.8384 475.499 93.7533 475.476C89.194 474.295 85.4786 475.294 85.4412 475.305C84.8966 475.456 84.334 475.136 84.183 474.593C84.032 474.048 84.3521 473.486 84.8954 473.335C85.0683 473.287 89.1811 472.181 94.2643 473.497C94.8102 473.639 95.1392 474.197 94.9973 474.744C94.8798 475.203 94.4643 475.509 94.01 475.509Z" fill="white"/>
<path d="M94.5688 471.646C94.4849 471.646 94.3985 471.635 94.312 471.613C89.7527 470.432 86.0374 471.431 86.0013 471.442C85.4567 471.593 84.8941 471.273 84.7431 470.729C84.5921 470.185 84.9121 469.622 85.4554 469.471C85.6283 469.423 89.7398 468.317 94.8243 469.634C95.3714 469.776 95.6992 470.333 95.5573 470.879C95.4385 471.34 95.0243 471.646 94.5688 471.646Z" fill="white"/>
<path d="M92.477 478.747C92.3918 478.747 92.3053 478.737 92.2201 478.714C87.6905 477.54 83.9443 478.533 83.9069 478.543C83.3636 478.693 82.8009 478.372 82.6512 477.828C82.5015 477.285 82.8203 476.724 83.3636 476.573C83.5365 476.525 87.6493 475.419 92.7325 476.735C93.2797 476.877 93.6074 477.435 93.4655 477.982C93.3468 478.441 92.9312 478.747 92.477 478.747Z" fill="white"/>
<path d="M90.6754 482.43C90.5902 482.43 90.505 482.42 90.4185 482.397C85.8889 481.224 82.1427 482.216 82.1053 482.226C81.5607 482.376 80.9993 482.055 80.8496 481.512C80.7012 480.968 81.0187 480.406 81.562 480.256C81.7349 480.208 85.8464 479.102 90.9309 480.418C91.4781 480.559 91.8058 481.118 91.6639 481.665C91.5452 482.124 91.1296 482.43 90.6754 482.43Z" fill="white"/>
<path d="M58.4662 245.589C58.4688 245.595 58.4688 245.604 58.4688 245.611C58.4688 245.631 58.4714 245.656 58.4779 245.68C58.536 246.3 58.5941 246.931 58.6521 247.571C61.3609 248.028 64.0076 247.793 66.5796 246.86C71.4679 245.088 75.3046 241.09 78.0894 237.106C79.4096 235.218 80.4923 233.333 81.3375 231.693C82.7713 228.912 83.5275 226.825 83.6127 226.593C83.7894 226.092 83.5275 225.55 83.0333 225.373C82.53 225.193 81.9905 225.456 81.8137 225.953C81.7918 226.007 81.0059 228.183 79.4806 231.073C78.6753 232.604 77.6661 234.337 76.4517 236.062C73.8475 239.78 70.322 243.476 65.924 245.066C63.5263 245.937 61.0317 246.11 58.4662 245.589Z" fill="#2B2B39"/>
<path d="M43.4127 140.424C43.4024 141.004 43.4746 142.057 43.5572 142.626C44.3999 148.535 45.2232 150.309 45.5097 154.638C45.6414 156.547 46.2079 158.927 46.4054 160.84C46.577 162.544 46.8931 164.631 47.2945 167.097C47.7087 169.665 48.2159 172.637 48.7424 176.002C48.914 177.114 49.0883 178.266 49.2625 179.464C49.3115 179.793 49.358 180.128 49.407 180.464C49.4999 181.103 49.5877 181.754 49.6767 182.416L49.6961 186.301C50.6046 192.974 51.0627 199.423 51.6769 204.511C51.7195 204.844 51.7596 205.169 51.7996 205.489V205.493C52.1648 208.288 52.5958 210.615 53.2023 212.268C53.2281 212.281 53.2488 212.294 53.2746 212.304C53.2811 212.308 53.2875 212.311 53.2939 212.314C53.3365 212.334 53.3766 212.354 53.4127 212.37C53.4591 212.393 53.5017 212.413 53.5443 212.433C53.5637 212.44 53.5843 212.45 53.5972 212.456C53.6372 212.476 53.6734 212.493 53.7056 212.509C53.7288 212.52 53.7521 212.533 53.7715 212.539C53.765 212.533 53.7585 212.529 53.7521 212.526C53.8437 212.566 53.8966 212.588 53.9005 212.588C53.8966 212.584 53.8966 212.582 53.894 212.582C53.9211 212.594 53.947 212.605 53.9766 212.618C54.2864 212.756 54.7664 212.964 55.0426 213.085C55.0684 213.095 55.0954 213.104 55.1187 213.115C57.7887 214.257 60.5104 215.224 63.2759 216.027C66.4453 216.955 69.6689 217.673 72.908 218.2C73.5107 218.3 74.1133 218.387 74.7147 218.477C74.7637 218.48 74.8102 218.487 74.8592 218.493C76.8607 218.773 78.8623 218.981 80.8664 219.111C81.6136 219.164 82.3647 219.203 83.1183 219.233C85.8103 219.351 88.4971 219.345 91.1568 219.222C91.4794 219.212 91.802 219.197 92.1246 219.173C95.1031 219.012 98.0492 218.706 100.93 218.271C101.239 218.225 101.548 218.176 101.855 218.127C101.908 218.116 101.961 218.11 102.012 218.101H102.016C102.49 218.025 102.961 217.946 103.432 217.857C104.992 217.587 106.529 217.265 108.044 216.909C108.571 216.794 109.094 216.669 109.611 216.53C115.302 215.098 120.608 213.162 125.297 210.836C125.639 210.664 125.978 210.494 126.317 210.319C126.561 210.194 126.805 210.069 127.045 209.941C127.104 209.909 127.16 209.878 127.219 209.846C128.763 209.013 130.235 208.135 131.613 207.22C131.679 207.177 131.745 207.134 131.807 207.094C133.634 205.87 135.307 204.583 136.808 203.236C136.406 200.727 135.952 198.068 135.491 195.474V195.47C135.389 194.903 135.29 194.337 135.192 193.781C134.909 192.204 134.629 190.673 134.362 189.238C134.362 189.232 134.358 189.221 134.358 189.219C133.756 186.211 133.167 183.086 132.601 179.972C132.588 179.909 132.581 179.873 132.581 179.873C132.394 178.852 132.212 177.835 132.032 176.821C131.919 176.192 131.811 175.57 131.702 174.948V174.945C130.66 168.986 129.741 163.319 129.056 158.834V158.83C128.977 158.317 128.901 157.822 128.829 157.346C128.665 156.251 128.516 155.243 128.387 154.341C128.105 152.388 127.857 150.486 127.634 148.633C127.41 146.818 127.215 145.052 127.048 143.33C126.85 141.369 126.685 139.452 126.553 137.599C126.471 136.606 126.411 135.624 126.35 134.663C126.35 134.66 126.35 134.66 126.35 134.66C126.324 134.216 126.297 133.774 126.273 133.337C126.25 132.925 126.227 132.517 126.21 132.112C126.21 132.112 126.21 132.112 126.206 132.108C126.202 132.013 126.196 131.915 126.193 131.818C126.17 131.364 126.153 130.909 126.138 130.462C126.072 128.954 126.03 127.486 126 126.053C125.938 122.844 125.96 119.842 126.042 117.03C126.055 116.536 126.072 116.049 126.089 115.568C126.27 110.699 126.632 106.434 127.044 102.701C127.09 102.253 127.139 101.815 127.188 101.384C128.133 93.2866 129.256 87.8163 129.131 84.1384C129.107 83.4867 129.052 82.8879 128.936 82.3446C128.745 81.3703 128.475 80.4979 128.136 79.7146C127.8 78.9377 127.395 78.2525 126.93 77.6343C125.304 75.4818 122.961 74.2675 120.295 73.3357C119.989 73.2273 119.683 73.1254 119.369 73.026C118.529 72.7563 117.665 72.5098 116.786 72.2595C116.473 72.1704 116.157 72.0814 115.837 71.9923C114.866 71.7187 113.878 71.44 112.898 71.1238C112.887 71.1238 112.881 71.12 112.872 71.12C112.125 70.8761 111.38 70.6192 110.647 70.3302C110.335 70.2089 110.025 70.0837 109.719 69.9521C109.422 69.8204 109.127 69.6927 108.84 69.5507C108.465 69.3701 108.083 69.1791 107.718 68.9752C105.769 67.9028 103.952 66.4794 102.411 64.4882C102.394 64.4753 102.385 64.4585 102.371 64.4391C102.187 64.2017 102.01 63.9513 101.832 63.6958H79.3295C79.3295 63.6958 78.0067 64.7721 75.6129 66.1116C75.3393 66.2664 75.0567 66.4213 74.7573 66.5826C74.5856 66.6717 74.4114 66.7607 74.2333 66.8523C74.0398 66.9543 73.8423 67.0498 73.6346 67.1517C73.5223 67.2046 73.3945 67.264 73.2758 67.3195C72.5183 67.6782 71.6795 68.0409 70.771 68.3932C69.9877 68.6926 69.1449 68.9919 68.2455 69.2655C67.9628 69.3571 67.6829 69.4397 67.3835 69.5249C66.7937 69.6927 66.1821 69.8579 65.5471 70.005C65.2142 70.0876 64.8786 70.1624 64.5367 70.236C63.7701 70.4011 62.9726 70.5483 62.1441 70.6773C60.5374 70.9341 59.0405 71.4206 57.6506 72.1317C57.3538 72.2801 57.0647 72.4414 56.7782 72.6118C55.8104 73.1912 54.8954 73.8893 54.0424 74.6959C53.5753 75.1372 53.1236 75.6109 52.6965 76.1206H52.6925C52.1725 76.7297 51.6783 77.3878 51.2085 78.0963C50.6097 78.9984 50.0497 79.9727 49.536 81.0257C49.3618 81.3806 49.1941 81.7432 49.0289 82.1149C46.9189 86.8948 45.6155 93.0504 45.151 100.401C44.9006 104.398 44.6438 108.288 44.3999 112.09C44.3703 112.525 44.3445 112.959 44.3148 113.394C44.2232 114.833 44.1341 116.261 44.0476 117.677C43.8928 120.3 43.7444 122.89 43.6166 125.448C43.5973 125.978 43.5675 126.505 43.5443 127.034C43.4914 128.219 43.4592 129.289 43.4424 130.299C43.3959 132.886 43.4385 135.115 43.4127 138.047C43.4062 138.376 43.4127 140.104 43.4127 140.424Z" fill="#467B6C"/>
<path d="M56.777 72.613C58.163 74.4133 59.6742 76.1154 61.3028 77.7117C63.0139 79.3842 64.8451 80.9547 66.7898 82.3497C68.6133 83.6531 70.9013 84.9862 73.2449 84.5849C77.5641 83.8403 78.0777 78.508 77.8661 75.003C77.6751 71.8994 76.8943 68.8964 75.6116 66.1116C75.338 66.2664 75.0554 66.4213 74.756 66.5826C75.8891 69.0616 76.6027 71.7239 76.8363 74.4571C77.1757 78.4073 76.3459 85.2275 70.6148 83.3421C68.3629 82.6014 66.3911 80.8967 64.6141 79.3919C63.0242 78.046 61.5195 76.5968 60.1142 75.0637C59.2521 74.119 58.4288 73.1409 57.6481 72.1343C57.3538 72.2814 57.0635 72.4427 56.777 72.613Z" fill="#5FA68D"/>
<path d="M58.6791 210.861C58.4714 210.861 58.2817 210.725 58.2249 210.514C43.2617 155.879 52.4758 99.3699 52.57 98.806C52.6139 98.5491 52.8462 98.3698 53.1133 98.4201C53.3688 98.4627 53.543 98.7053 53.4991 98.9621C53.4049 99.5248 44.2257 155.836 59.1321 210.266C59.2005 210.517 59.0533 210.775 58.8017 210.843C58.7617 210.856 58.7204 210.861 58.6791 210.861Z" fill="#253F3D"/>
<path d="M112.79 38.3829C112.79 38.3829 117.536 39.0772 118.707 35.4845C119.879 31.8917 115.75 29.1727 120.501 25.4354C125.253 21.6982 129.509 13.5204 123.788 9.16373C118.067 4.80705 116.018 11.9847 111.273 6.37112C106.526 0.75751 103.001 0 98.7254 0C94.2087 0 90.4818 5.52069 84.0823 5.20065C77.6815 4.8819 73.1403 13.0236 75.6529 17.3673C78.7655 22.7512 77.7782 21.3343 77.5008 26.2833C77.2246 31.2323 80.9038 34.8276 84.6643 34.3088C88.4235 33.79 112.79 38.3829 112.79 38.3829Z" fill="#2B2B39"/>
<path d="M79.0854 62.209C79.9191 66.1941 85.8902 71.014 89.23 72.1251C94.4229 73.8544 99.7732 73.3575 104.001 71.1611L104.7 63.2982L104.844 61.6954L105.113 58.6525L87.0632 44.5113L86.0231 43.6958L85.3211 43.1447L85.0127 43.8119L84.6603 44.581L84.7313 44.9217C82.6962 52.4375 82.3684 56.9529 79.0854 62.209Z" fill="#E9A48E"/>
<path d="M104.291 68.6719C96.7806 66.1916 93.0099 59.9663 91.5387 56.0845C95.0527 59.4553 99.4171 61.8259 103.551 61.7794C103.997 61.7743 104.427 61.7446 104.841 61.6904L104.291 68.6719Z" fill="#2B2B39"/>
<path d="M115.761 36.4252C115.761 36.4252 118.07 36.8355 118.253 39.8424C118.438 42.8505 116.504 47.673 113.554 46.7981C110.604 45.9244 115.761 36.4252 115.761 36.4252Z" fill="#B6665E"/>
<path d="M84.2513 45.6122C84.2539 45.6147 84.2539 45.6147 84.2539 45.6147C84.2926 45.6199 84.3287 45.6289 84.3649 45.6341C84.4126 45.8948 84.4694 46.1555 84.5326 46.4161C84.5597 46.5323 84.5868 46.6446 84.6178 46.7594C84.7417 47.233 84.8979 47.7105 85.076 48.1893C87.8415 55.6276 96.6271 63.4944 104.309 63.1215C104.762 63.0982 105.195 63.0531 105.614 62.986C113.07 61.7781 115.534 53.559 115.144 47.1904C115.13 46.9517 115.113 46.7129 115.089 46.4781C115.089 46.4781 115.134 46.0471 115.226 45.2934C115.299 44.6946 115.402 43.879 115.531 42.9151C115.925 40.0373 116.575 35.7916 117.466 31.622C119.029 24.3127 114.873 13.0855 100.011 9.46699C88.1641 6.58533 81.7155 12.7822 79.5475 19.3611C78.9952 21.0375 78.7216 22.7383 78.7074 24.3205C78.6855 26.2704 79.0236 28.5416 79.5449 30.8516C78.1151 30.8593 76.5368 31.5343 75.5522 33.9888C73.7339 38.5248 78.9435 44.714 84.2513 45.6122Z" fill="#E9A48E"/>
<path d="M79.5475 30.8517C82.2369 32.7151 83.948 33.0532 83.948 33.0532L86.9317 36.9892L90.4456 34.9773C90.4456 34.9773 89.0687 30.4374 91.4354 29.0889C93.8009 27.7403 92.8034 24.7838 92.8034 24.7838C92.8034 24.7838 83.2925 19.2179 79.5514 19.3612C78.9991 21.0375 78.7255 22.7384 78.7113 24.3205C78.6868 26.2704 79.0262 28.5404 79.5475 30.8517Z" fill="#2B2B39"/>
<path d="M117.883 23.0778C117.883 23.0778 107.759 15.3387 101.517 17.6294C95.276 19.92 92.8022 24.7838 92.8022 24.7838C92.8022 24.7838 81.0794 26.2859 78.5423 23.181C76.0052 20.0761 80.1864 8.48885 89.2133 6.74024C98.2416 4.99164 111.335 8.56499 117.883 23.0778Z" fill="#2B2B39"/>
<path d="M112.756 38.5326C112.561 39.5779 111.962 40.3431 111.42 40.2412C110.877 40.1392 110.595 39.2101 110.79 38.1661C110.985 37.1208 111.584 36.3555 112.126 36.4575C112.668 36.5581 112.951 37.4873 112.756 38.5326Z" fill="#2B2B39"/>
<path d="M109.606 37.255C109.554 37.2305 109.509 37.1892 109.479 37.135C109.404 36.9995 109.455 36.8279 109.591 36.753C109.705 36.6911 112.41 35.2496 114.478 37.0563C114.596 37.1583 114.608 37.3363 114.506 37.4538C114.404 37.5712 114.226 37.5815 114.109 37.4809C112.334 35.9284 109.886 37.2331 109.861 37.2473C109.779 37.2925 109.684 37.2912 109.606 37.255Z" fill="#2B2B39"/>
<g opacity="0.5">
<path d="M101.114 42.1253C101.019 42.8248 99.1991 43.1564 97.0491 42.8635C94.8992 42.5718 93.2332 41.7679 93.3274 41.0671C93.4229 40.3677 95.2424 40.036 97.3924 40.329C99.5436 40.6219 101.21 41.4259 101.114 42.1253Z" fill="#B6665E"/>
</g>
<g opacity="0.5">
<path d="M115.228 45.2947C113.754 44.9153 112.747 44.3062 112.821 43.7564C112.898 43.2093 114.02 42.8892 115.537 42.915C115.405 43.879 115.303 44.6933 115.228 45.2947Z" fill="#B6665E"/>
</g>
<path d="M88.2493 45.2341C87.8634 45.7 87.4195 46.0252 86.9652 46.2562C86.1367 46.6756 85.2618 46.7685 84.6165 46.7595C84.5856 46.6459 84.5585 46.5298 84.5327 46.4188C84.4681 46.1555 84.4113 45.8936 84.3661 45.6329C84.33 45.6264 84.29 45.62 84.2539 45.6135C84.4178 45.6264 84.6255 45.6342 84.8604 45.6251C85.1675 45.6161 85.5185 45.5735 85.8786 45.469C86.4077 45.3154 86.951 45.0289 87.3833 44.5127C87.582 44.2727 87.9395 44.2417 88.1757 44.4431C88.4157 44.6431 88.448 44.9967 88.2493 45.2341Z" fill="#B6665E"/>
<path d="M105.614 62.9872C105.196 63.0543 104.762 63.0995 104.311 63.1227C96.6271 63.4944 87.8414 55.6276 85.0772 48.1892C85.3069 47.3065 85.8412 46.5129 86.9665 46.2561L86.9317 36.9891L90.4482 34.976C90.4482 34.976 92.4833 43.4493 95.3249 44.1177C98.1679 44.7862 104.823 44.3836 107.484 46.2858C107.484 46.2858 112.321 45.0869 115.148 47.1904C115.535 53.5589 113.072 61.7793 105.614 62.9872Z" fill="#2B2B39"/>
<path d="M101.94 46.2007C101.94 46.2007 101.465 51.1716 105.57 52.0479C109.675 52.9241 110.732 48.9275 110.732 48.9275L101.94 46.2007Z" fill="white"/>
<path d="M104.458 53.7823C103.678 53.4958 103.331 52.8661 103.31 52.8286C103.212 52.6454 103.281 52.417 103.465 52.3176C103.649 52.2195 103.876 52.2879 103.975 52.4699C103.998 52.5099 104.453 53.2932 105.544 53.1487C105.751 53.1216 105.94 53.2661 105.968 53.4726C105.995 53.6791 105.85 53.8688 105.644 53.8959C105.17 53.9591 104.778 53.8998 104.458 53.7823Z" fill="#5F5F75"/>
<path d="M83.4332 41.6789C83.2151 41.6079 83.0538 41.4066 83.0461 41.164C82.9015 37.1738 78.5345 34.7825 78.4906 34.7593C78.2171 34.6122 78.1138 34.2715 78.261 33.9979C78.4068 33.7243 78.7475 33.6211 79.021 33.7669C79.2249 33.8753 84.0023 36.4795 84.1701 41.1227C84.1817 41.4337 83.9391 41.6931 83.6281 41.706C83.5597 41.7085 83.4939 41.6982 83.4332 41.6789Z" fill="#B6665E"/>
<path d="M78.9307 38.7701C78.8636 38.7482 78.799 38.7133 78.7423 38.6643C78.5048 38.4642 78.4751 38.1081 78.6764 37.8719C78.7319 37.8074 80.0457 36.2898 82.2898 36.7285C82.5931 36.7892 82.7944 37.0834 82.7337 37.3893C82.6744 37.6938 82.3775 37.8926 82.073 37.8332C80.4702 37.5196 79.5449 38.5868 79.5359 38.5985C79.3823 38.7778 79.1423 38.8385 78.9307 38.7701Z" fill="#B6665E"/>
<path d="M108.023 45.0495C107.894 45.007 107.78 44.9179 107.707 44.7902C107.555 44.5192 107.651 44.1759 107.922 44.0236L111.201 42.1795L108.63 41.0271C108.48 40.96 108.367 40.8297 108.32 40.6722L106.298 33.7888C106.21 33.4907 106.381 33.1784 106.679 33.0906C106.977 33.0029 107.289 33.1732 107.377 33.4713L109.327 40.1057L112.679 41.6091C112.873 41.6956 113.002 41.8853 113.011 42.0969C113.02 42.3086 112.911 42.5086 112.725 42.6131L108.472 45.0044C108.331 45.0857 108.168 45.0973 108.023 45.0495Z" fill="#B6665E"/>
<path d="M98.9241 32.3408C98.6931 32.2646 98.475 32.1343 98.2943 31.9459C97.6994 31.3316 97.7149 30.3521 98.3291 29.7585C98.475 29.6166 101.954 26.3155 106.082 28.2809C106.854 28.6487 107.182 29.5714 106.814 30.3431C106.446 31.1148 105.524 31.44 104.752 31.0748C102.54 30.0231 100.502 31.9614 100.482 31.982C100.056 32.395 99.4519 32.5137 98.9241 32.3408Z" fill="#2B2B39"/>
<path d="M114.911 34.3592C114.482 34.2198 114.118 33.8946 113.944 33.4404C113.476 32.217 111.331 31.924 110.782 31.9137C109.929 31.8957 109.249 31.1885 109.267 30.3342C109.285 29.4799 109.993 28.8011 110.847 28.8191C112.585 28.8553 115.802 29.636 116.835 32.3344C117.139 33.1319 116.741 34.0275 115.942 34.3321C115.599 34.465 115.236 34.4663 114.911 34.3592Z" fill="#2B2B39"/>
<path d="M103.623 36.9337C103.428 37.979 102.829 38.7443 102.287 38.6423C101.744 38.5417 101.463 37.6112 101.657 36.5672C101.852 35.5219 102.451 34.758 102.993 34.8586C103.536 34.9606 103.818 35.8897 103.623 36.9337Z" fill="#2B2B39"/>
<path d="M99.7526 35.9723C99.6984 35.9542 99.6481 35.9206 99.612 35.8703C99.5216 35.7439 99.5488 35.5683 99.6752 35.478C99.781 35.4019 102.281 33.63 104.562 35.1618C104.691 35.2483 104.726 35.4225 104.64 35.5529C104.553 35.6819 104.379 35.7168 104.249 35.629C102.29 34.3127 100.028 35.9181 100.006 35.9336C99.9294 35.9878 99.8352 35.9994 99.7526 35.9723Z" fill="#2B2B39"/>
<path d="M0.168533 149.068C0.359528 150.52 0.652466 151.679 0.958313 152.719C1.42547 154.262 1.94944 155.527 2.48241 156.665C2.6605 157.043 2.84119 157.412 3.01927 157.768C3.39738 158.522 3.78317 159.227 4.1716 159.898C4.33678 160.184 4.50455 160.467 4.67231 160.744C4.85685 161.047 5.04141 161.343 5.22595 161.636C6.71388 163.996 8.2547 166.07 9.81747 168.044C11.3841 170.016 12.9779 171.876 14.6169 173.663C15.4337 174.555 16.2557 175.434 17.0829 176.3C17.9127 177.166 18.7618 178.008 19.6071 178.847C20.4536 179.69 21.3183 180.509 22.1907 181.326C22.6255 181.734 23.0656 182.139 23.5134 182.54L24.9162 183.784C27.7139 186.266 31.8293 187.017 35.444 185.349C40.3155 183.101 42.4448 177.333 40.1968 172.458L39.558 171.065C39.5219 170.993 39.4431 170.864 39.3838 170.762L39.1825 170.427L38.7708 169.741L37.9449 168.366L36.2892 165.594C35.733 164.675 35.2027 163.743 34.6632 162.826C34.1238 161.911 33.5934 160.992 33.0798 160.074C32.0525 158.238 31.055 156.424 30.1465 154.64C29.238 152.862 28.4121 151.108 27.7694 149.508C27.6972 149.334 27.6339 149.162 27.5681 148.992C27.7991 148.682 28.0456 148.353 28.3024 148.02C28.8715 147.283 29.491 146.506 30.1298 145.713C31.1828 144.405 32.299 143.072 33.4411 141.729C33.6812 141.446 33.9212 141.162 34.1651 140.88C34.1986 140.84 34.2348 140.797 34.2709 140.758C35.6233 139.166 37.0132 137.568 38.4185 135.972C39.8574 134.329 41.3118 132.686 42.7804 131.045C43.001 130.798 43.2217 130.548 43.4424 130.302C46.1485 127.256 48.8934 124.222 51.6486 121.177L60.5361 111.37L60.5981 111.302L61.2395 110.591L65.0748 106.354L66.2994 104.995C65.9871 104.057 65.6671 103.121 65.3419 102.191C65.1935 101.76 65.0451 101.332 64.8915 100.901C64.2204 98.9906 63.5249 97.0884 62.8241 95.1863V95.1824C62.7454 94.9721 62.6693 94.7643 62.5906 94.5539C62.4912 94.2868 62.3931 94.021 62.2937 93.7577C60.9078 90.0282 59.4792 86.3181 58.0571 82.6053C57.2841 80.5909 56.5098 78.5765 55.7497 76.5581C55.6116 76.1929 55.4671 75.8238 55.3252 75.4561C54.4334 75.6006 53.5546 75.8213 52.6951 76.1245H52.6913C51.1117 76.6678 49.607 77.4705 48.2404 78.5339C47.9733 78.7378 47.7139 78.9559 47.4571 79.1856C47.0158 79.5701 46.5951 79.9921 46.1899 80.4399L46.1537 80.4825C45.3639 81.3574 44.6232 82.2001 43.8695 83.0596C43.1159 83.9126 42.3713 84.7747 41.6279 85.6341L39.4032 88.2177L37.3268 90.667L37.199 90.818C36.9951 91.058 36.7912 91.2981 36.5938 91.5394C33.8554 94.7682 31.1686 98.0408 28.4831 101.325C25.6131 104.867 22.7688 108.442 19.9414 112.063C19.5762 112.534 19.211 113.008 18.8483 113.481C18.6044 113.794 18.3605 114.107 18.1243 114.424C17.3242 115.46 16.528 116.504 15.7344 117.554C14.6684 118.976 13.6051 120.405 12.5417 121.857C12.3275 122.147 12.1171 122.436 11.9068 122.729C11.7945 122.88 11.6822 123.032 11.5713 123.187C10.1956 125.1 8.82256 127.046 7.44303 129.086C6.75133 130.109 6.06093 131.156 5.35891 132.272C4.65172 133.395 3.9432 134.55 3.16633 135.953L2.86694 136.502L2.83339 136.562L2.55984 137.086L2.23721 137.725C2.12236 137.965 2.01653 138.181 1.89136 138.452C1.7765 138.699 1.64486 138.998 1.52227 139.292C1.38419 139.618 1.25257 139.94 1.10159 140.358L0.989342 140.664L0.874428 141.019L0.75573 141.384L0.627968 141.826C0.462784 142.405 0.331123 143.037 0.239502 143.596C-0.124413 145.879 -0.009552 147.623 0.168533 149.068Z" fill="#467B6C"/>
<path d="M120.055 91.6206C121.668 95.7682 124.1 99.4448 127.043 102.705C127.089 102.257 127.138 101.819 127.187 101.388C124.755 98.5737 122.71 95.4494 121.256 91.9741C118.82 86.1541 118.316 79.3209 120.295 73.3395C119.989 73.2311 119.683 73.1292 119.369 73.0298C117.399 78.9867 117.77 85.745 120.055 91.6206Z" fill="#5FA68D"/>
<path d="M47.4583 79.1842C47.7577 79.823 48.0842 80.4553 48.4262 81.0734C48.6198 81.4257 48.8211 81.7716 49.0288 82.1174C52.3273 87.6149 57.1563 92.1897 62.8241 95.1823V95.1862C63.6668 95.6275 64.5263 96.0392 65.4012 96.4108C73.841 100.002 83.1674 100.038 92.1569 100.835C101.18 101.635 109.698 103.659 117.223 108.892C120.526 111.187 123.498 113.936 126.042 117.033C126.055 116.539 126.072 116.052 126.089 115.571C123.745 112.855 121.069 110.415 118.123 108.319C111.413 103.546 103.751 101.16 95.6295 100.198C86.3264 99.0951 76.6827 99.4487 67.7422 96.2676C65.849 95.5966 64.0256 94.75 62.295 93.7563C57.0221 90.734 52.5712 86.3102 49.536 81.027C49.3643 80.734 49.203 80.4372 49.0417 80.1378C48.7591 79.6074 48.492 79.0719 48.2416 78.5312C47.9745 78.7364 47.7151 78.9532 47.4583 79.1842Z" fill="#5FA68D"/>
<path d="M126.979 94.639C126.944 94.9629 126.684 97.5607 126.384 101.237C126.34 101.777 126.297 102.339 126.251 102.921C125.806 108.767 125.343 116.567 125.485 122.507C125.498 123.046 126.201 123.246 126.495 122.796L126.504 122.782C126.342 116.855 126.819 108.841 127.27 102.899C127.276 102.866 127.279 102.83 127.275 102.795C127.634 98.1801 127.965 94.8326 127.977 94.7435C128.006 94.4661 127.806 94.2157 127.53 94.1925C127.253 94.1615 127.006 94.3654 126.979 94.639Z" fill="#253F3D"/>
<path d="M91.7465 91.8387C91.7465 91.8387 92.8344 84.3732 92.4292 78.6873C92.0253 73.0066 90.745 69.2797 90.745 69.2797C90.745 69.2797 82.9144 65.7967 80.2586 60.3676C80.2586 60.3676 71.7647 62.3782 70.7671 68.3944C70.7697 68.3944 81.4381 87.7569 91.7465 91.8387Z" fill="#253F3D"/>
<path d="M104.565 64.8313C104.565 64.8313 109.828 64.1873 109.882 71.3508C109.989 85.5874 100.702 89.5492 100.702 89.5492L98.7204 82.2309C97.546 77.1825 97.4737 74.2583 97.404 71.1224C97.404 71.1224 104.455 70.6811 104.565 64.8313Z" fill="#253F3D"/>
<path d="M94.1622 81.2347C94.1622 82.0709 94.8398 82.7484 95.676 82.7484C96.5122 82.7484 97.1897 82.0709 97.1897 81.2347C97.1897 80.3985 96.5122 79.7209 95.676 79.7209C94.8398 79.7222 94.1622 80.3997 94.1622 81.2347Z" fill="#253F3D"/>
<path d="M94.6733 87.2523C94.6733 88.0886 95.3508 88.7661 96.187 88.7661C97.0233 88.7661 97.7007 88.0886 97.7007 87.2523C97.7007 86.4161 97.0233 85.7386 96.187 85.7386C95.3508 85.7386 94.6733 86.4161 94.6733 87.2523Z" fill="#253F3D"/>
<path d="M94.8888 92.6762C94.8888 93.5124 95.5663 94.1899 96.4025 94.1899C97.2387 94.1899 97.9162 93.5124 97.9162 92.6762C97.9162 91.8399 97.2387 91.1624 96.4025 91.1624C95.5663 91.1624 94.8888 91.8399 94.8888 92.6762Z" fill="#253F3D"/>
<path d="M94.7482 127.385C95.3211 131.074 99.479 133.668 102.073 135.875C111.066 143.529 120.06 151.181 129.056 158.831C128.977 158.318 128.901 157.824 128.829 157.347C127.219 155.978 125.609 154.609 124 153.24C117.587 147.785 111.179 142.331 104.769 136.876C103.103 135.461 101.434 134.049 99.772 132.627C98.4648 131.508 97.1252 130.33 96.2954 128.792C95.1237 126.622 95.8734 124.295 98.3589 123.699C99.8894 123.334 101.519 123.587 103.033 123.89C111.305 125.546 119.203 128.792 126.273 133.338C126.25 132.926 126.227 132.518 126.21 132.113C126.21 132.113 126.21 132.113 126.206 132.109C123.929 130.681 121.564 129.38 119.129 128.225C115.864 126.678 112.479 125.378 109.013 124.354C105.82 123.413 102.021 122.115 98.6467 122.645C96.258 123.023 94.3455 124.817 94.7482 127.385Z" fill="#5FA68D"/>
<path d="M60.1889 98.9879C67.0621 101.53 73.9417 104.969 78.5268 110.882C82.6086 116.146 84.6746 123.298 82.0265 129.669C80.9386 132.289 79.1681 134.621 76.8504 136.269C74.3933 138.016 71.6368 138.472 68.7049 138.746C65.338 139.063 60.7658 139.601 60.6381 143.952C60.5348 147.46 63.059 150.553 63.4501 154.001C64.1418 160.09 57.4957 165.249 51.7582 163.412C51.1555 163.218 51.4123 162.264 52.0202 162.459C55.0618 163.432 58.2881 162.282 60.4109 159.97C62.7015 157.473 62.8538 154.517 61.8034 151.425C60.9052 148.781 59.2585 145.98 59.7295 143.088C60.0689 141.01 61.5234 139.458 63.4501 138.701C66.0594 137.678 68.9656 137.91 71.6808 137.398C74.7573 136.818 77.4156 135.026 79.2804 132.528C83.4938 126.883 82.7996 119.49 79.2727 113.692C74.9908 106.653 67.4144 102.708 59.927 99.939C59.3346 99.7209 59.5902 98.766 60.1889 98.9879Z" fill="#5FA68D"/>
<path d="M49.2625 179.464C49.3116 179.793 49.358 180.128 49.4071 180.464C52.4681 180.708 55.5859 180.362 58.532 179.437C61.926 178.371 65.0993 176.516 67.568 173.939C70.6523 170.71 72.6177 166.635 74.6218 162.698C76.6853 158.646 78.9333 154.517 82.5054 151.582C86.6788 148.151 91.7323 147.71 96.7355 149.534C101.426 151.245 105.775 154.161 109.873 156.969C113.819 159.675 117.595 162.628 121.176 165.801C125.041 169.228 128.665 172.912 132.029 176.818C131.917 176.19 131.808 175.568 131.7 174.946V174.942C128.023 170.79 124.05 166.903 119.807 163.316C116.301 160.347 112.618 157.585 108.782 155.05C104.842 152.446 100.697 149.761 96.1677 148.299C92.0266 146.966 87.6648 147.093 83.8901 149.381C80.4006 151.502 77.8132 154.879 75.8052 158.371C73.5043 162.37 71.7724 166.692 69.1102 170.481C66.6079 174.046 63.2075 176.738 59.0934 178.207C55.9537 179.332 52.57 179.754 49.2625 179.464Z" fill="#5FA68D"/>
<path d="M53.9753 212.615C54.285 212.753 54.7651 212.961 55.0412 213.082C62.3196 208.132 71.0059 204.959 79.8147 207.368C84.3972 208.622 89.6934 211.769 90.9374 216.707C91.162 217.593 91.2239 218.429 91.1542 219.222C91.4768 219.212 91.7994 219.197 92.122 219.173C92.4382 215.397 89.9825 212.027 87.0892 209.825C83.7249 207.263 79.5747 205.93 75.3871 205.628C67.5616 205.061 60.2703 208.204 53.9753 212.615Z" fill="#5FA68D"/>
<path d="M100.93 218.271C101.239 218.225 101.548 218.176 101.855 218.127C101.908 218.116 101.961 218.11 102.012 218.101C99.1874 213.736 96.4297 208.061 97.4801 202.982C98.1938 199.522 101.137 197.445 104.587 197.306C107.954 197.172 111.194 198.688 114.077 200.269C118.751 202.837 122.896 206.274 126.316 210.319C126.56 210.194 126.804 210.069 127.044 209.941C127.103 209.909 127.159 209.878 127.218 209.846C126.797 209.345 126.365 208.855 125.925 208.371C121.561 203.601 115.964 199.404 109.825 197.229C104.236 195.25 97.2503 196.785 96.3973 203.543C95.7676 208.544 98.1215 213.876 100.93 218.271Z" fill="#5FA68D"/>
<path d="M51.6782 204.511C51.7208 204.844 51.7608 205.169 51.8008 205.489C54.8296 205.163 57.8145 204.419 60.6458 203.258C68.599 200.002 73.7933 193.458 79.2972 187.171C82.042 184.037 84.9366 180.919 88.4609 178.648C92.6679 175.936 97.5162 174.895 102.477 175.6C107.968 176.381 113.073 178.859 117.807 181.65C122.043 184.152 126.066 187.016 129.818 190.198C131.786 191.873 133.679 193.632 135.49 195.468C135.388 194.902 135.289 194.335 135.191 193.779C132.992 191.614 130.678 189.566 128.254 187.643C120.785 181.714 111.657 175.665 101.972 174.538C92.8176 173.475 85.8193 178.478 79.9669 184.933C73.9791 191.536 68.7126 198.949 60.1503 202.396C57.4325 203.494 54.5754 204.199 51.6782 204.511Z" fill="#5FA68D"/>
<path d="M18.1218 114.422C24.3832 114.721 30.5878 113.369 35.0348 108.468C39.7877 103.234 39.4135 96.7618 37.3255 90.6655L37.1977 90.8165C36.9938 91.0565 36.7899 91.2966 36.5925 91.5379C38.4559 97.2857 38.6534 103.332 34.0154 108.115C29.9039 112.355 24.4296 113.636 18.847 113.481C18.6031 113.794 18.3592 114.106 18.1218 114.422Z" fill="#5FA68D"/>
<path d="M33.0734 128.504C34.4529 121.697 38.4495 115.498 44.3999 112.091C45.7524 111.315 47.208 110.682 48.7553 110.222C52.7545 109.032 56.9963 109.079 60.9039 110.471C60.6252 110.708 60.3594 110.961 60.1064 111.229C54.6322 109.403 48.9657 110.478 44.3148 113.395C40.6872 115.67 37.6791 119.06 35.8582 123.053C33.2579 128.765 32.9817 134.887 34.2722 140.76C34.236 140.8 34.1999 140.842 34.1664 140.881C33.9225 141.163 33.6824 141.447 33.4424 141.73C32.3984 137.422 32.1739 132.946 33.0734 128.504Z" fill="#5FA68D"/>
<path d="M4.1716 159.897C4.33678 160.184 4.50455 160.467 4.67231 160.744C10.1194 156.656 14.1987 150.767 15.8647 144.084C17.7372 136.555 16.3951 128.491 12.5405 121.854C12.3262 122.144 12.1159 122.433 11.9055 122.726C15.4673 129.063 16.688 136.689 14.911 143.819C13.3095 150.243 9.40581 155.938 4.1716 159.897Z" fill="#5FA68D"/>
<path d="M7.82495 165.438C7.82495 165.44 7.82495 165.44 7.82495 165.44C8.48181 166.336 9.14766 167.199 9.81613 168.044C11.3866 170.016 12.9778 171.877 14.6142 173.663C15.4323 174.556 16.253 175.432 17.0828 176.301C17.9087 177.167 18.7604 178.009 19.607 178.85C20.4536 179.69 21.3208 180.51 22.1919 181.326C22.6281 181.734 23.0681 182.139 23.5146 182.54L24.9148 183.783C27.7139 186.269 31.8293 187.017 35.4426 185.35C40.3155 183.1 42.4421 177.332 40.1967 172.455L39.5567 171.065C39.5205 170.993 39.4431 170.865 39.385 170.761L39.1824 170.425L38.772 169.743L37.9448 168.364L36.2891 165.596C35.7342 164.675 35.2025 163.743 34.6644 162.826C34.1237 161.911 33.5959 160.992 33.081 160.074C32.0551 158.238 31.0563 156.422 30.1465 154.641C29.8974 154.154 29.6521 153.668 29.4199 153.186C29.0095 152.346 28.6262 151.518 28.2804 150.72C28.172 150.65 28.0998 150.618 28.0998 150.618C12.6281 155.076 7.92948 165.21 7.82495 165.438Z" fill="#E9A48E"/>
<path d="M29.4186 153.186C29.4186 153.186 15.0375 156.904 9.81617 168.046C9.81617 168.046 7.54238 167.78 7.82499 165.44C7.82499 165.44 12.4527 155.127 28.0998 150.62C28.0998 150.62 29.7529 151.411 29.4186 153.186Z" fill="#253F3D"/>
<path d="M0.167243 149.069C0.360815 150.521 0.651144 151.678 0.958279 152.719C1.42543 154.262 1.94812 155.527 2.48238 156.665C7.22362 150.471 5.11109 142.049 2.8321 136.562L2.55847 137.084L2.23718 137.722C2.12233 137.962 2.01654 138.177 1.89007 138.45C1.77521 138.696 1.64357 138.996 1.52098 139.289C1.38418 139.615 1.25254 139.938 1.10155 140.354L0.989312 140.662L0.871873 141.017L0.754435 141.383L0.62534 141.822C0.460157 142.404 0.328574 143.036 0.236949 143.595C-0.124386 145.88 -0.00955391 147.623 0.167243 149.069Z" fill="#253F3D"/>
<path d="M27.4751 148.545C27.2441 148.537 27.0273 148.397 26.9344 148.167C26.9073 148.1 24.1921 141.429 21.5647 138.144C21.3569 137.883 21.3982 137.503 21.6589 137.295C21.9196 137.086 22.3003 137.128 22.508 137.389C25.2464 140.813 27.9409 147.433 28.0545 147.714C28.1797 148.024 28.03 148.376 27.7203 148.501C27.6403 148.534 27.5577 148.548 27.4751 148.545Z" fill="#253F3D"/>
<path d="M25.8698 144.95C25.8375 144.949 25.8053 144.945 25.773 144.939C25.4452 144.875 25.2323 144.557 25.2955 144.231L26.1356 139.94C26.2001 139.612 26.5189 139.399 26.8441 139.463C27.1719 139.527 27.3848 139.845 27.3216 140.171L26.4815 144.462C26.4247 144.758 26.1614 144.959 25.8698 144.95Z" fill="#253F3D"/>
<path d="M50.6614 123.259C50.5246 123.261 50.3852 123.213 50.2743 123.116C50.0316 122.904 50.0071 122.537 50.2175 122.295C50.2717 122.233 55.6904 116.021 61.042 110.093C61.2576 109.854 61.6254 109.836 61.8641 110.05C62.1029 110.265 62.1222 110.633 61.9067 110.872C56.5628 116.794 51.1504 122.999 51.0962 123.061C50.9814 123.191 50.8227 123.258 50.6614 123.259Z" fill="#253F3D"/>
<path d="M61.8963 114.876L58.0313 114.91C57.7099 114.913 57.4466 114.654 57.4441 114.333C57.4415 114.012 57.6996 113.748 58.0209 113.746L61.8859 113.712C62.2073 113.71 62.4705 113.968 62.4731 114.289C62.4757 114.611 62.2176 114.873 61.8963 114.876Z" fill="#253F3D"/>
<path d="M63.9882 181.15C64.1431 182.78 59.9451 182.2 57.1267 182.271C54.3083 182.339 52.9868 181.966 50.7104 182.531C50.7104 182.531 53.5172 182.806 55.0322 183.59C55.4568 183.811 55.9936 184.071 56.5653 184.353C56.5692 184.356 56.5718 184.355 56.5718 184.355C58.0339 185.075 59.7231 185.933 60.3774 186.613C61.291 187.56 58.4571 188.878 55.622 188.217C53.9314 187.82 52.681 187.127 51.5944 186.783C51.1969 186.657 50.8239 186.578 50.4562 186.578C50.1452 186.577 49.838 186.632 49.5309 186.765C49.5309 186.765 49.9103 186.958 50.4446 187.252C50.8898 187.495 51.4433 187.807 51.9763 188.137C52.2938 188.332 52.6048 188.532 52.881 188.724C54.1844 189.633 56.3989 192.967 55.2336 193.809C55.0232 193.96 54.7057 193.978 54.3121 193.908C53.3675 193.738 51.9828 193.053 50.5968 192.441C49.327 191.882 48.0558 191.384 47.1138 191.4C44.7173 191.437 40.3942 191.34 34.3225 190.734C30.6769 190.37 28.2353 188.617 26.8674 187.274C26.0286 186.451 25.4621 185.39 25.2143 184.241C24.8633 182.615 24.9265 180.926 25.3975 179.331C26.7357 174.804 29.1141 171.181 34.4735 170.157C34.4735 170.157 34.6955 170.037 35.0671 169.843C36.3421 169.188 39.4032 167.693 41.4692 167.372C44.1418 166.956 47.9165 168.486 47.9165 168.486L47.9243 168.544L48.5385 172.509C48.5385 172.513 48.5398 172.516 48.5398 172.52C48.5398 172.52 49.3141 172.002 52.6126 171.882C53.3688 171.853 54.1083 171.924 54.8206 172.053C55.3149 172.143 55.7974 172.263 56.2581 172.4C58.0364 172.925 59.5554 173.698 60.5916 174.009C62.2847 174.517 60.3929 176.759 57.5977 176.674C55.1987 176.6 53.2281 176.88 52.0563 177.154L52.0537 177.155C51.8653 177.2 51.6937 177.245 51.5479 177.287C51.5479 177.287 51.6718 177.28 51.8873 177.278C52.801 177.267 55.3522 177.287 57.1008 177.86C59.2676 178.566 63.8321 179.518 63.9882 181.15Z" fill="#E9A48E"/>
<path d="M38.8856 168.657C38.8856 168.657 30.4342 173.098 25.2142 184.239C25.2142 184.239 21.9093 183.668 22.1919 181.327C22.1919 181.327 26.8867 170.978 37.5668 166.092C37.5668 166.092 39.2211 166.883 38.8856 168.657Z" fill="#253F3D"/>
</svg>
