<svg width="165" height="44" viewBox="0 0 165 44" fill="none" xmlns="http://www.w3.org/2000/svg">
<path d="M24.7306 29.6958C22.35 28.8116 19.9015 28.6756 17.6569 29.2877C16.0926 29.6958 14.5962 30.512 13.2359 31.5322L12.2837 32.3484L12.0116 32.6205L12.6237 33.1646C12.6918 33.1646 12.6918 33.2327 12.7598 33.3007C12.8958 33.4367 13.0318 33.5047 13.2359 33.6407L13.644 33.9128L14.0521 33.5727C14.1201 33.5047 14.2561 33.3687 14.3922 33.3007C15.6164 32.2804 16.9768 31.6003 18.4051 31.2602C20.2415 30.7841 22.214 30.8521 24.1864 31.6003C25.8188 32.2124 29.1516 32.9606 33.1646 31.2602L33.3006 31.1922L33.5046 30.9881C33.5046 30.9201 33.5727 30.9201 33.6407 30.8521C33.9808 30.444 34.3208 30.0359 34.5929 29.5598L35.9532 27.4513L33.7767 28.6756C30.5799 30.444 27.6553 30.7841 24.7306 29.6958Z" fill="#201B21"/>
<path d="M15.4124 22.3501C17.2488 21.874 19.2213 21.942 21.1938 22.6902C23.3703 23.5064 28.9476 24.6627 35.205 19.0173L36.2253 17.9971L36.2933 17.9291L36.5654 17.657L36.4293 17.3169C36.3613 17.0449 36.2253 16.7048 36.0892 16.3647L35.7492 15.4125L35.069 16.0926C35.001 16.2287 34.865 16.2967 34.7289 16.4327C31.7362 19.4934 27.1111 22.6222 21.8059 20.7177C19.4253 19.8335 16.9768 19.6975 14.7323 20.3096C12.5557 20.9218 10.6513 22.078 8.88288 23.7104V23.6424L7.86264 24.7307C7.86264 24.7987 7.79464 24.7987 7.72662 24.8667L7.52256 25.0707L7.59058 25.3428C7.6586 25.6829 7.79462 26.023 7.86264 26.363L8.27074 27.4513L8.9509 26.5671C9.01891 26.4311 9.15494 26.3631 9.22296 26.227C10.6513 24.9347 12.6238 23.0983 15.4124 22.3501Z" fill="#201B21"/>
<path d="M8.81488 21.1259C10.3792 19.4935 12.1476 18.4732 14.0521 17.9291C15.8885 17.453 17.861 17.521 19.8334 18.2692C25.9549 20.5137 31.2601 16.8409 33.5727 14.8684L34.4569 13.9842L34.797 13.7121L34.5249 13.304C34.3208 13.1 34.1848 12.8279 33.9808 12.5559L33.5727 12.0117L33.0966 12.4878C33.0285 12.5559 32.8925 12.6919 32.8245 12.7599C29.9678 15.4805 25.5468 18.2692 20.5136 16.3648C18.133 15.4805 15.6845 15.3445 13.44 15.9567C12.0116 16.3648 10.6513 17.0449 9.29098 17.9291L7.86264 19.0854C7.72661 19.2214 7.65859 19.2894 7.52256 19.4255L7.38654 19.5615V19.7656C7.31852 20.2417 7.31852 20.7178 7.2505 21.1259L7.18248 22.8263L8.33876 21.602C8.47479 21.4659 8.61083 21.2619 8.81488 21.1259Z" fill="#201B21"/>
<path d="M26.7031 34.321L26.567 34.7291L26.7031 34.321C26.499 34.253 26.363 34.185 26.1589 34.117C23.7784 33.2328 21.3298 33.0967 19.0853 33.7089C18.6092 33.8449 18.1331 33.9809 17.6569 34.185L16.0245 34.9332L15.6165 35.1372L16.9768 35.6133C17.3849 35.7494 17.793 35.8854 18.2011 36.0214L18.4051 36.0894L18.6092 36.0214C18.8132 35.9534 19.0173 35.8174 19.2213 35.8174C19.3573 35.8174 19.4934 35.7494 19.6294 35.6813C21.2618 35.2733 23.0302 35.2732 24.9346 35.8854C25.1387 35.9534 25.2747 36.0214 25.4788 36.0894L25.8189 36.2255L26.0229 36.1574C26.499 36.0214 27.0431 35.8854 27.4512 35.6813L29.3557 35.0012L27.3832 34.5251C27.1792 34.4571 26.9071 34.389 26.7031 34.321Z" fill="#201B21"/>
<path d="M37.1095 20.2416L36.0893 21.2618C35.9532 21.3978 35.8172 21.5339 35.6812 21.6699C32.8925 24.3225 28.4035 27.1792 23.3703 25.2748C20.9897 24.3905 18.5412 24.2545 16.2967 24.8667C14.1882 25.4788 12.2837 26.5671 10.5833 28.1994L9.6991 29.1517L9.42704 29.4917L9.6991 29.8998C9.90315 30.1719 10.0392 30.376 10.1752 30.648L10.5833 31.2602L11.0594 30.648C11.1274 30.58 11.2635 30.444 11.3315 30.3759C12.9639 28.6075 14.7323 27.5193 16.7728 26.9752C18.6092 26.499 20.5816 26.5671 22.5541 27.3152C24.2545 27.9274 26.0229 28.1314 27.7913 27.9274C30.9201 27.5873 34.0488 25.8189 36.3614 23.8464C36.4974 23.7104 36.6334 23.6424 36.7694 23.5064L36.9735 23.3023V23.0983C36.9735 22.6902 37.0415 22.2141 37.0415 21.806L37.1095 20.2416Z" fill="#201B21"/>
<path d="M11.2634 13.9842L11.0594 13.5761L11.2634 13.9842C11.6715 13.7801 12.1476 13.6441 12.5557 13.508C14.3921 13.0319 16.3646 13.0999 18.3371 13.8481C19.6294 14.3242 20.9217 14.5283 22.35 14.5283C25.2067 14.5283 28.0633 13.508 30.716 11.5356L31.7362 10.7194L32.0763 10.4473L31.4641 9.97121C31.2601 9.76716 30.988 9.56312 30.716 9.42709L30.3078 9.15503L29.9678 9.42709C29.8317 9.4951 29.7637 9.63113 29.6277 9.69915C26.0228 12.4198 22.418 13.168 19.0172 11.8757C16.5687 10.9915 14.1201 10.7874 11.6715 11.5356C11.4674 11.6036 11.2634 11.6716 10.9913 11.7396L10.8553 11.8076L10.6513 12.0117C10.6513 12.0797 10.5832 12.0797 10.5152 12.1477C10.2432 12.5558 9.90308 12.8959 9.63101 13.304L8.33871 15.2765L10.4472 14.1882C10.7873 14.1882 11.0593 14.0522 11.2634 13.9842Z" fill="#201B21"/>
<path d="M16.8407 9.35911L17.0448 9.42713C17.929 9.76721 19.2893 10.1073 20.9897 10.1073C22.7581 10.1073 24.4585 9.69919 26.1589 9.01903L28.2674 7.9988L26.8391 7.5227C26.431 7.38666 26.0229 7.25063 25.5468 7.18262H25.3427L25.1387 7.25062C24.9347 7.31863 24.7306 7.45468 24.5265 7.5227C22.4861 8.27087 20.4456 8.4069 18.4731 7.86278C18.2691 7.79476 18.065 7.72673 17.861 7.65872L17.6569 7.5907L17.4529 7.65872C17.0448 7.79475 16.6367 7.93079 16.2286 8.13484L14.6642 8.815L16.2966 9.29109C16.4327 9.22308 16.6367 9.2911 16.8407 9.35911Z" fill="#201B21"/>
<path d="M45.5824 27.7039L42.1133 18.0506H46.4443L47.7372 22.8772L48.0819 24.5795H48.2974L48.6206 23.0927L49.8919 18.0506H54.2014L55.5589 23.0927L55.8606 24.5795H56.076L56.4423 22.8341L57.649 18.0506H62.0016L61.6568 19.365L58.5109 27.7039H53.7705L52.413 22.2093L52.1975 21.1965H51.982L51.7019 22.317L50.3229 27.7039H45.5824ZM66.5989 27.7039C65.6508 27.7039 64.9398 27.5674 64.4657 27.2945C63.9917 27.0215 63.6757 26.648 63.5176 26.174C63.374 25.6856 63.3022 25.1253 63.3022 24.4933V21.2396C63.3022 20.6363 63.3812 20.0976 63.5392 19.6236C63.6972 19.1352 64.0061 18.7545 64.4657 18.4815C64.9398 18.1943 65.6508 18.0506 66.5989 18.0506H72.5891C73.5372 18.0506 74.2411 18.1943 74.7008 18.4815C75.1748 18.7545 75.4837 19.1352 75.6273 19.6236C75.7853 20.0976 75.8643 20.6363 75.8643 21.2396V24.4933C75.8643 25.1253 75.7853 25.6856 75.6273 26.174C75.4837 26.648 75.1748 27.0215 74.7008 27.2945C74.2411 27.5674 73.5372 27.7039 72.5891 27.7039H66.5989ZM68.3227 24.9889H70.8869C71.5764 24.9889 71.914 24.7016 71.8996 24.127V21.6275C71.8996 21.3402 71.8206 21.1247 71.6626 20.9811C71.5189 20.8374 71.2604 20.7656 70.8869 20.7656H68.3443C67.9708 20.7656 67.705 20.8374 67.547 20.9811C67.389 21.1247 67.31 21.3402 67.31 21.6275V24.127C67.2956 24.7016 67.6332 24.9889 68.3227 24.9889ZM78.2263 27.7039V18.0506H81.286L82.1048 18.4815C82.7656 18.0506 83.6419 17.8351 84.7336 17.8351C85.4519 17.8351 86.0839 17.9141 86.6298 18.0721C87.1757 18.2158 87.6138 18.3738 87.9442 18.5462C88.289 18.7186 88.5044 18.8407 88.5906 18.9125L87.5133 21.7137C87.3696 21.6131 87.0967 21.4766 86.6945 21.3043C86.3066 21.1319 85.8469 20.9739 85.3154 20.8302C84.7839 20.6722 84.2237 20.5932 83.6347 20.5932H83.3977C82.9955 20.5932 82.6866 20.665 82.4712 20.8087C82.2557 20.938 82.1479 21.2324 82.1479 21.6921V27.7039H78.2263ZM101.277 27.9193C100.573 27.9193 99.9558 27.8475 99.4243 27.7039C98.9071 27.5602 98.4115 27.2514 97.9375 26.7773C97.6502 26.49 97.3629 26.2027 97.0756 25.9154C96.7883 25.6281 96.501 25.3408 96.2137 25.0535C95.9839 24.8093 95.7971 24.6226 95.6535 24.4933C95.5098 24.3496 95.3662 24.2563 95.2225 24.2132C95.0932 24.1557 94.9065 24.127 94.6623 24.127C94.3463 24.127 94.1595 24.1557 94.1021 24.2132C94.0446 24.2706 94.0159 24.4646 94.0159 24.795V27.7039H90.0942V14.0643H94.0159V21.3689H94.7054C94.9496 21.3689 95.1794 21.2684 95.3949 21.0672C95.5242 20.938 95.7181 20.7009 95.9767 20.3562C96.2496 20.0114 96.5441 19.6307 96.8601 19.2142C97.1762 18.7976 97.4635 18.4169 97.722 18.0721H102.247L101.902 18.7401C101.557 19.1711 101.155 19.6451 100.696 20.1623C100.25 20.6794 99.8121 21.1534 99.3812 21.5844C98.9646 22.0153 98.627 22.317 98.3685 22.4894C98.9287 22.8629 99.453 23.2651 99.9414 23.696C100.43 24.1126 101.055 24.4861 101.816 24.8165C102.319 25.032 102.743 25.1756 103.087 25.2474C103.446 25.3049 103.698 25.3336 103.842 25.3336L103.238 27.7039C103.095 27.747 102.85 27.79 102.506 27.8331C102.175 27.8906 101.766 27.9193 101.277 27.9193ZM106.045 27.7039V20.7656H104.278V18.0721H106.045V16.5854C106.045 14.4594 107.208 13.3964 109.535 13.3964H111.022C112.746 13.3964 113.981 13.4754 114.728 13.6334C115.49 13.7914 115.87 13.9279 115.87 14.0428L115.224 16.5423C114.98 16.4417 114.541 16.3484 113.909 16.2622C113.277 16.1616 112.516 16.1113 111.625 16.1113H111C110.641 16.1113 110.376 16.176 110.203 16.3053C110.045 16.4345 109.966 16.6572 109.966 16.9732V18.0721H114.017V20.7656H109.966V27.7039H106.045ZM116.529 27.7039V15.7666L116.313 14.0428H120.45V27.7039H116.529ZM126.107 27.7039C125.159 27.7039 124.448 27.5674 123.974 27.2945C123.5 27.0215 123.184 26.648 123.026 26.174C122.882 25.6856 122.81 25.1253 122.81 24.4933V21.2396C122.81 20.6363 122.889 20.0976 123.047 19.6236C123.205 19.1352 123.514 18.7545 123.974 18.4815C124.448 18.1943 125.159 18.0506 126.107 18.0506H132.097C133.045 18.0506 133.749 18.1943 134.209 18.4815C134.683 18.7545 134.992 19.1352 135.135 19.6236C135.293 20.0976 135.372 20.6363 135.372 21.2396V24.4933C135.372 25.1253 135.293 25.6856 135.135 26.174C134.992 26.648 134.683 27.0215 134.209 27.2945C133.749 27.5674 133.045 27.7039 132.097 27.7039H126.107ZM127.831 24.9889H130.395C131.084 24.9889 131.422 24.7016 131.408 24.127V21.6275C131.408 21.3402 131.329 21.1247 131.171 20.9811C131.027 20.8374 130.768 20.7656 130.395 20.7656H127.852C127.479 20.7656 127.213 20.8374 127.055 20.9811C126.897 21.1247 126.818 21.3402 126.818 21.6275V24.127C126.804 24.7016 127.141 24.9889 127.831 24.9889ZM140.126 27.7039L136.657 18.0506H140.988L142.281 22.8772L142.626 24.5795H142.841L143.164 23.0927L144.436 18.0506H148.745L150.103 23.0927L150.404 24.5795H150.62L150.986 22.8341L152.193 18.0506H156.545L156.2 19.365L153.055 27.7039H148.314L146.957 22.2093L146.741 21.1965H146.526L146.246 22.317L144.866 27.7039H140.126Z" fill="black"/>
</svg>
